<svg xmlns="http://www.w3.org/2000/svg" viewBox="0 0 900 420" role="img" aria-labelledby="t d"><title id="t">Sanitized property-management concept</title><desc id="d">Original interface showing location filters, a property table, map panel, and province to property hierarchy.</desc><rect width="900" height="420" fill="#e9eef2"/><rect x="22" y="18" width="856" height="384" rx="6" fill="#fff" stroke="#748797" stroke-width="2"/><rect x="22" y="18" width="856" height="45" fill="#245d83"/><text x="44" y="47" fill="#fff" font-family="Arial" font-size="17" font-weight="bold">TAŞINMAZ YÖNETİM SİSTEMİ · SANITIZED CONCEPT</text><g font-family="Arial"><g transform="translate(42 82)"><rect width="816" height="55" fill="#f2f5f7" stroke="#a4b1ba"/><text x="13" y="17" fill="#52606a" font-size="11">PROVINCE</text><rect x="13" y="23" width="170" height="23" fill="#fff" stroke="#8295a4"/><text x="22" y="39" font-size="12">Ankara</text><text x="205" y="17" fill="#52606a" font-size="11">DISTRICT</text><rect x="205" y="23" width="170" height="23" fill="#fff" stroke="#8295a4"/><text x="214" y="39" font-size="12">Çankaya</text><text x="397" y="17" fill="#52606a" font-size="11">NEIGHBORHOOD</text><rect x="397" y="23" width="170" height="23" fill="#fff" stroke="#8295a4"/><text x="406" y="39" font-size="12">All</text><rect x="678" y="17" width="122" height="30" rx="3" fill="#347eaf"/><text x="739" y="37" text-anchor="middle" fill="#fff" font-size="12" font-weight="bold">Apply filters</text></g><g transform="translate(42 156)"><rect width="497" height="220" fill="#fff" stroke="#889aa8"/><rect width="497" height="31" fill="#dbe8f1"/><text x="14" y="20" font-size="11" font-weight="bold">ID</text><text x="64" y="20" font-size="11" font-weight="bold">TYPE</text><text x="178" y="20" font-size="11" font-weight="bold">LOCATION</text><text x="350" y="20" font-size="11" font-weight="bold">AREA</text><text x="422" y="20" font-size="11" font-weight="bold">STATUS</text><g fill="#52606a" font-size="11"><text x="14" y="60">104</text><text x="64" y="60">Parcel</text><text x="178" y="60">Çankaya / A</text><text x="350" y="60">840 m²</text><text x="422" y="60">Active</text><text x="14" y="100">105</text><text x="64" y="100">Building</text><text x="178" y="100">Çankaya / B</text><text x="350" y="100">315 m²</text><text x="422" y="100">Active</text><text x="14" y="140">106</text><text x="64" y="140">Land</text><text x="178" y="140">Yenimahalle</text><text x="350" y="140">1,120 m²</text><text x="422" y="140">Review</text></g><path d="M0 72h497M0 112h497M0 152h497" stroke="#d7dfe5"/></g><g transform="translate(556 156)"><rect width="302" height="220" fill="#cbe2cb" stroke="#889aa8"/><path d="M0 45 85 20l72 50 78-33 67 25M22 220l35-75 59-33 66 27 45-72 75 25M145 0l-14 220" fill="none" stroke="#fff" stroke-width="9" opacity=".8"/><path d="M0 120c90-25 210-16 302 12" fill="none" stroke="#77a7d0" stroke-width="13"/><g fill="#d9573f" stroke="#fff" stroke-width="2"><path d="M80 75c-16 0-22 20 0 40 22-20 16-40 0-40Z"/><path d="M217 138c-16 0-22 20 0 40 22-20 16-40 0-40Z"/></g><rect x="9" y="9" width="137" height="25" fill="#fff" opacity=".9"/><text x="18" y="26" font-size="11">Map visualization</text></g></g><text x="450" y="395" text-anchor="middle" font-family="Arial" font-size="11" fill="#647684">Province → District → Neighborhood → Property · Mock records only</text></svg>
