<svg xmlns="http://www.w3.org/2000/svg" viewBox="0 0 1600 1000" role="img" aria-labelledby="title desc"><title id="title">htenlikOS rolling hills wallpaper</title><desc id="desc">An original blue sky over layered green hills with a winding path.</desc><defs><linearGradient id="sky" x2="0" y2="1"><stop stop-color="#3e9dea"/><stop offset="1" stop-color="#bde8ff"/></linearGradient><linearGradient id="hill" x2="0" y2="1"><stop stop-color="#55b745"/><stop offset="1" stop-color="#1d742e"/></linearGradient></defs><rect width="1600" height="1000" fill="url(#sky)"/><g fill="#fff" opacity=".82"><path d="M180 170c55-70 145-43 166 18 56-23 117 11 118 62H96c4-54 45-88 84-80Z"/><path d="M1160 120c52-61 129-37 151 13 60-25 128 13 132 69h-370c3-53 48-88 87-82Z"/></g><path d="M0 590Q320 390 680 620t920-40v420H0Z" fill="#76c65b"/><path d="M0 745Q320 520 735 720t865-85v365H0Z" fill="url(#hill)"/><path d="M905 1000c-120-190-87-286 34-385 12 176 109 201 196 385Z" fill="#d9c57f" opacity=".78"/></svg>
