<svg xmlns="http://www.w3.org/2000/svg" viewBox="0 0 48 48" role="img" aria-label="GitHub">
  <defs>
    <linearGradient id="case" x2="0" y2="1"><stop stop-color="#f8f9fb"/><stop offset="1" stop-color="#9aa2ad"/></linearGradient>
    <radialGradient id="disc"><stop stop-color="#525965"/><stop offset="1" stop-color="#171a20"/></radialGradient>
  </defs>
  <rect x="3" y="3" width="42" height="42" rx="3" fill="url(#case)" stroke="#303640" stroke-width="2"/>
  <path d="M5 5h38M5 5v38" fill="none" stroke="#fff" stroke-width="1.5"/>
  <circle cx="24" cy="24" r="16" fill="url(#disc)" stroke="#08090b" stroke-width="1.5"/>
  <path d="M15 17l1-6 6 4c1-.3 3-.3 4 0l6-4 1 6c2 2 3 5 3 8 0 7-4 10-9 11v-5c0-2-1-3-2-4 4 0 7-1 7-5 0-1 0-3-1-4l-3 2c-3-1-6-1-9 0l-3-2c-1 1-1 3-1 4 0 4 3 5 7 5-1 1-2 2-2 4v5c-5-1-9-4-9-11 0-3 1-6 4-8z" fill="#f4f4f4" stroke="#0c0d10" stroke-width="1" stroke-linejoin="bevel"/>
  <path d="M20 23h1m6 0h1" stroke="#111" stroke-width="2"/>
</svg>
