<svg xmlns="http://www.w3.org/2000/svg" viewBox="0 0 900 420" role="img" aria-labelledby="t d"><title id="t">Sanitized signing analytics concept</title><desc id="d">Original mock analytics dashboard with engagement cards, a line chart, field friction, and document health. All values are fictional.</desc><rect width="900" height="420" fill="#e9f1f8"/><rect x="24" y="20" width="852" height="380" rx="8" fill="#fff" stroke="#7893ad" stroke-width="2"/><rect x="24" y="20" width="852" height="46" rx="8" fill="#205f9f"/><text x="48" y="50" fill="#fff" font-family="Arial" font-size="18" font-weight="bold">SIGNING ANALYTICS · SANITIZED CONCEPT</text><g font-family="Arial"><g transform="translate(48 88)"><rect width="180" height="70" rx="5" fill="#edf6ff" stroke="#93afc8"/><text x="14" y="24" fill="#52677a" font-size="12">TOTAL SESSIONS</text><text x="14" y="54" fill="#174f88" font-size="27" font-weight="bold">1,248</text></g><g transform="translate(244 88)"><rect width="180" height="70" rx="5" fill="#eef9f0" stroke="#93b99b"/><text x="14" y="24" fill="#52677a" font-size="12">COMPLETION</text><text x="14" y="54" fill="#26703a" font-size="27" font-weight="bold">78%</text></g><g transform="translate(440 88)"><rect width="180" height="70" rx="5" fill="#fff8e3" stroke="#c6ae6d"/><text x="14" y="24" fill="#52677a" font-size="12">FIELD FRICTION</text><text x="14" y="54" fill="#986900" font-size="27" font-weight="bold">34 / 100</text></g><g transform="translate(636 88)"><rect width="216" height="70" rx="5" fill="#eef9f0" stroke="#93b99b"/><text x="14" y="24" fill="#52677a" font-size="12">DOCUMENT HEALTH</text><circle cx="28" cy="49" r="10" fill="#2c9b4b"/><text x="46" y="55" fill="#26703a" font-size="20" font-weight="bold">Healthy</text></g></g><g transform="translate(48 187)"><rect width="540" height="180" rx="4" fill="#fafcff" stroke="#9cb0c4"/><text x="16" y="24" fill="#34526f" font-family="Arial" font-size="13" font-weight="bold">ENGAGEMENT OVER TIME</text><path d="M38 141H510M38 102H510M38 63H510" stroke="#dae4ed"/><path d="M38 145C95 129 115 91 167 105s82-52 134-35 86 87 135 35 55-59 74-46" fill="none" stroke="#2878c8" stroke-width="5"/><g fill="#2878c8"><circle cx="38" cy="145" r="5"/><circle cx="167" cy="105" r="5"/><circle cx="301" cy="70" r="5"/><circle cx="436" cy="105" r="5"/><circle cx="510" cy="59" r="5"/></g></g><g transform="translate(612 187)" font-family="Arial"><rect width="240" height="180" rx="4" fill="#fafcff" stroke="#9cb0c4"/><text x="16" y="24" fill="#34526f" font-size="13" font-weight="bold">FRICTION SIGNALS</text><text x="16" y="58" fill="#4f6070" font-size="12">Address field</text><rect x="16" y="70" width="208" height="15" fill="#e2e9ef"/><rect x="16" y="70" width="126" height="15" fill="#e7a72d"/><text x="16" y="112" fill="#4f6070" font-size="12">Signature field</text><rect x="16" y="124" width="208" height="15" fill="#e2e9ef"/><rect x="16" y="124" width="54" height="15" fill="#4eae62"/><text x="16" y="162" fill="#71808e" font-size="11">Mock data · no customer information</text></g></svg>
