<svg xmlns="http://www.w3.org/2000/svg" viewBox="0 0 900 420" role="img" aria-labelledby="t d"><title id="t">Conceptual internship workflow</title><desc id="d">Applicant, review, approval, placement, and completion connected in an original workflow diagram.</desc><rect width="900" height="420" fill="#eef5fb"/><text x="450" y="48" text-anchor="middle" font-family="Arial" font-size="20" font-weight="bold" fill="#244b73">INTERNSHIP WORKFLOW · CONCEPTUAL PREVIEW</text><path d="M140 210H760" stroke="#5582ad" stroke-width="8" stroke-linecap="round"/><g font-family="Arial" text-anchor="middle"><g transform="translate(120 210)"><circle r="52" fill="#3c86c5" stroke="#164a78" stroke-width="4"/><path d="M0-22a12 12 0 1 0 0 24 12 12 0 0 0 0-24Zm-23 52c2-28 44-28 46 0" fill="#fff"/><text y="82" fill="#263f58" font-size="16" font-weight="bold">Applicant</text></g><g transform="translate(285 210)"><circle r="52" fill="#e8b142" stroke="#7d5a13" stroke-width="4"/><path d="m-17 0 11 11 25-29" fill="none" stroke="#fff" stroke-width="9"/><text y="82" fill="#263f58" font-size="16" font-weight="bold">Review</text></g><g transform="translate(450 210)"><circle r="52" fill="#59a967" stroke="#256331" stroke-width="4"/><path d="m-23 1 15 16 31-35" fill="none" stroke="#fff" stroke-width="9"/><text y="82" fill="#263f58" font-size="16" font-weight="bold">Approval</text></g><g transform="translate(615 210)"><circle r="52" fill="#725fb8" stroke="#42337c" stroke-width="4"/><path d="M-25 20V-8L0-25 25-8v28M-10 20V4h20v16" fill="none" stroke="#fff" stroke-width="7"/><text y="82" fill="#263f58" font-size="16" font-weight="bold">Placement</text></g><g transform="translate(780 210)"><circle r="52" fill="#287f91" stroke="#15515e" stroke-width="4"/><path d="M-23-18h46v37h-46zM-13-28v20m26-20v20M-13 2h26M-13 11h17" fill="none" stroke="#fff" stroke-width="5"/><text y="82" fill="#263f58" font-size="16" font-weight="bold">Completion</text></g></g><text x="450" y="375" text-anchor="middle" font-family="Arial" font-size="14" fill="#61788f">Illustrative workflow — not a production screenshot</text></svg>
